<?xml version="1.0" encoding="UTF-8" standalone="no"?>
<svg
   xmlns:dc="http://purl.org/dc/elements/1.1/"
   xmlns:cc="http://creativecommons.org/ns#"
   xmlns:rdf="http://www.w3.org/1999/02/22-rdf-syntax-ns#"
   xmlns:svg="http://www.w3.org/2000/svg"
   xmlns="http://www.w3.org/2000/svg"
   id="svg8"
   version="1.1"
   viewBox="0 0 132.29166 132.29167"
   height="132.29167mm"
   width="132.29167mm">
  <defs
     id="defs2" />
  <metadata
     id="metadata5">
    <rdf:RDF>
      <cc:Work
         rdf:about="">
        <dc:format>image/svg+xml</dc:format>
        <dc:type
           rdf:resource="http://purl.org/dc/dcmitype/StillImage" />
        <dc:title></dc:title>
      </cc:Work>
    </rdf:RDF>
  </metadata>
  <g
     transform="translate(0,-164.70832)"
     id="layer1">
    <g
       id="text825"
       style="font-style:normal;font-weight:normal;font-size:88.22976685px;line-height:1.25;font-family:sans-serif;letter-spacing:0px;word-spacing:0px;fill:#000000;fill-opacity:1;stroke:none;stroke-width:0.2646893"
       aria-label="QM">
      <path
         id="path829"
         style="font-size:88.22976685px;stroke-width:0.2646893"
         d="m 29.812011,201.67966 q -9.477807,0 -15.078329,7.06527 -5.5574414,7.06527 -5.5574414,19.25718 0,12.14883 5.5574414,19.2141 5.600522,7.06528 15.078329,7.06528 9.477807,0 14.992168,-7.06528 5.557441,-7.06527 5.557441,-19.2141 0,-12.19191 -5.557441,-19.25718 -5.514361,-7.06527 -14.992168,-7.06527 z m 12.191906,57.25457 11.459531,12.53655 H 42.951698 L 33.43081,261.17444 q -1.421671,0.0862 -2.197128,0.12924 -0.732376,0.0431 -1.421671,0.0431 -13.570496,0 -21.712794,-9.047 Q 1.6391277e-7,243.20968 1.6391277e-7,228.00211 q 0,-15.25065 8.09921683608723,-24.29765 8.142298,-9.09008 21.712794,-9.09008 13.527416,0 21.626633,9.09008 8.099216,9.047 8.099216,24.29765 0,11.20105 -4.523498,19.17102 -4.480418,7.96997 -13.010445,11.7611 z" />
      <path
         id="path831"
         style="font-size:88.22976685px;stroke-width:0.2646893"
         d="m 73.151441,195.77757 h 12.967363 l 16.413836,43.77023 16.5,-43.77023 h 12.96737 v 64.31984 h -8.48695 V 203.6183 L 106.9269,247.73318 H 98.181468 L 81.595305,203.6183 v 56.47911 h -8.443864 z" />
    </g>
  </g>
</svg>
